# xmcd CD database file
#
# Track frame offsets:
#	150
#	29080
#	63032
#	94424
#	115752
#	152113
#
# Disc length: 2631 seconds
#
# Revision: 3
# Processed by: cddbd v1.5.2PL0 Copyright (c) Steve Scherf et al.
# Submitted via: CDex 1.51
#
DISCID=490a4506
DTITLE=Melvin Taylor - Blues On The Run
DYEAR=1982
DGENRE=Blues
TTITLE0=Travelin' Man
TTITLE1=Lowdown Dirty Shame
TTITLE2=Escape
TTITLE3=Cold, Cold Feeling
TTITLE4=Just Like A Woman
TTITLE5=Chitlins Con Carne
EXTD=YEAR: 1982
EXTT0=
EXTT1=
EXTT2=
EXTT3=
EXTT4=
EXTT5=
PLAYORDER=
